# xmcd
#
# Track frame offsets:
#	150
#	20767
#	44806
#	71778
#	92178
#	116799
#	138355
#	162012
#	186743
#	207282
#	227980
#	252310
#	278449
#	295671
#	317567
#
# Disc length: 4528 seconds
#
# Revision: 1
# Processed by: cddbd v1.5.2PL0 Copyright (c) Steve Scherf et al.
# Submitted via: audiograbber 1.83.01
#
DISCID=e911ae0f
DTITLE=CANKAN - canýmý veririm
DYEAR=2007
DGENRE=Pop
TTITLE0=Cankan - cayýr cayýr
TTITLE1=Cankan - seni satamam
TTITLE2=Cankan - dardayým
TTITLE3=Cankan - gidene bye bye
TTITLE4=Cankan - canýmý veririm
TTITLE5=Cankan - bittin sen (dönemem)
TTITLE6=Cankan - dura dura
TTITLE7=Cankan - anlamadým
TTITLE8=Cankan - olaydým
TTITLE9=Cankan - yaranamadým
TTITLE10=Cankan - acýlarýn tadýndayým
TTITLE11=Cankan - dön
TTITLE12=Cankan - aklýna tüküreyim
TTITLE13=Cankan - sende mi
TTITLE14=Cankan - www.kirazim.com
EXTD=
EXTT0=
EXTT1=
EXTT2=
EXTT3=
EXTT4=
EXTT5=
EXTT6=
EXTT7=
EXTT8=
EXTT9=
EXTT10=
EXTT11=
EXTT12=
EXTT13=
EXTT14=
PLAYORDER=
